<svg width="12" height="12" viewBox="0 0 12 12" fill="none" xmlns="http://www.w3.org/2000/svg">
<path d="M6 12C2.68613 12 0 9.31387 0 6C0 2.68613 2.68613 0 6 0C9.31387 0 12 2.68613 12 6C12 9.31387 9.31387 12 6 12ZM4.5435 5.4015L6 3.945L7.45727 5.40225L8.30473 4.55475L6 2.25L3.696 4.554L4.5435 5.4015ZM2.25 6L3.0975 6.84753L3.945 6L3.0975 5.1525L2.25 6ZM4.5435 6.5985L3.69487 7.44487L3.696 7.446L6 9.75L8.30473 7.44527V7.44487L7.45727 6.59737L6 8.055L4.5435 6.5985ZM8.055 6L8.90247 6.84753L9.75 6L8.90247 5.1525L8.055 6ZM6.85947 5.99925H6.85987L6 5.13975L5.36437 5.775L5.29125 5.84813L5.14087 5.99887L5.13937 6L5.14087 6.00113L5.99963 6.86027L6.85987 6.00037L6.86027 6L6.85947 5.99963V5.99925Z" fill="#201D1D"/>
</svg>
