<svg width="12" height="12" viewBox="0 0 12 12" fill="none" xmlns="http://www.w3.org/2000/svg">
<path d="M6 12C9.31367 12 12 9.31367 12 6C12 2.68629 9.31367 0 6 0C2.68629 0 0 2.68629 0 6C0 9.31367 2.68629 12 6 12Z" fill="#201D1D"/>
<path d="M5.7379 9.5H6.27735L6.2799 8.87387C7.37153 8.78907 7.99747 8.14373 8 7.22773C7.99747 6.25705 7.25193 5.81405 6.4682 5.61445L6.30025 5.56795L6.31045 4.00664C6.71753 4.08321 6.97967 4.34571 7.02033 4.73945H7.92873C7.91353 3.86992 7.27733 3.23555 6.3155 3.13711L6.31805 2.5H5.77865L5.7761 3.13711C4.82189 3.24101 4.13486 3.86992 4.13741 4.775C4.13741 5.5789 4.66921 6.041 5.5267 6.2789L5.75575 6.3418L5.74555 7.99613C5.2901 7.91953 4.96183 7.6406 4.92875 7.14573H4C4.03563 8.17113 4.69211 8.78087 5.74045 8.87387L5.7379 9.5ZM6.285 7.99613L6.29515 6.4949C6.75827 6.63985 7.05347 6.83127 7.056 7.21953C7.05347 7.6242 6.75067 7.91407 6.285 7.99613ZM5.7608 5.4203C5.40965 5.3 5.08905 5.1004 5.09415 4.71211C5.0967 4.35937 5.3435 4.08594 5.771 4.00664L5.7608 5.4203Z" fill="#D2CBBF"/>
</svg>
